<svg width="185" height="185" viewBox="0 0 185 185" fill="none" xmlns="http://www.w3.org/2000/svg">
<rect x="1.5" y="1.5" width="181.539" height="182" rx="8.5" stroke="#DFD0B8" stroke-width="3"/>
<path d="M61.5129 0.461349V185" stroke="#B1ADA8" stroke-opacity="0.6" stroke-width="2"/>
<path d="M123.026 0.461349V185" stroke="#B1ADA8" stroke-opacity="0.6" stroke-width="2"/>
<path d="M0 61.9742H184.539" stroke="#B1ADA8" stroke-opacity="0.6" stroke-width="2"/>
<path d="M0 123.487H184.539" stroke="#B1ADA8" stroke-opacity="0.6" stroke-width="2"/>
<path d="M12.3026 0.461349V185" stroke="#B1ADA8" stroke-opacity="0.6"/>
<path d="M24.6051 0.461349V185" stroke="#B1ADA8" stroke-opacity="0.6"/>
<path d="M36.9077 0.461349V185" stroke="#B1ADA8" stroke-opacity="0.6"/>
<path d="M49.2103 0.461349V185" stroke="#B1ADA8" stroke-opacity="0.6"/>
<path d="M61.5129 0.461349V185" stroke="#B1ADA8" stroke-opacity="0.6"/>
<path d="M73.8155 0.461349V185" stroke="#B1ADA8" stroke-opacity="0.6"/>
<path d="M86.118 0.461349V185" stroke="#B1ADA8" stroke-opacity="0.6"/>
<path d="M98.4206 0.461349V185" stroke="#B1ADA8" stroke-opacity="0.6"/>
<path d="M110.723 0.461349V185" stroke="#B1ADA8" stroke-opacity="0.6"/>
<path d="M123.026 0.461349V185" stroke="#B1ADA8" stroke-opacity="0.6"/>
<path d="M135.328 0.461349V185" stroke="#B1ADA8" stroke-opacity="0.6"/>
<path d="M147.631 0.461349V185" stroke="#B1ADA8" stroke-opacity="0.6"/>
<path d="M159.933 0.461349V185" stroke="#B1ADA8" stroke-opacity="0.6"/>
<path d="M172.236 0.461349V185" stroke="#B1ADA8" stroke-opacity="0.6"/>
<path d="M0 12.7639H184.539" stroke="#B1ADA8" stroke-opacity="0.6"/>
<path d="M0 25.0665H184.539" stroke="#B1ADA8" stroke-opacity="0.6"/>
<path d="M0 37.3691H184.539" stroke="#B1ADA8" stroke-opacity="0.6"/>
<path d="M0 49.6716H184.539" stroke="#B1ADA8" stroke-opacity="0.6"/>
<path d="M0 61.9742H184.539" stroke="#B1ADA8" stroke-opacity="0.6"/>
<path d="M0 74.2768H184.539" stroke="#B1ADA8" stroke-opacity="0.6"/>
<path d="M0 86.5794H184.539" stroke="#B1ADA8" stroke-opacity="0.6"/>
<path d="M0 98.882H184.539" stroke="#B1ADA8" stroke-opacity="0.6"/>
<path d="M0 111.185H184.539" stroke="#B1ADA8" stroke-opacity="0.6"/>
<path d="M0 123.487H184.539" stroke="#B1ADA8" stroke-opacity="0.6"/>
<path d="M0 135.79H184.539" stroke="#B1ADA8" stroke-opacity="0.6"/>
<path d="M0 148.092H184.539" stroke="#B1ADA8" stroke-opacity="0.6"/>
<path d="M0 160.395H184.539" stroke="#B1ADA8" stroke-opacity="0.6"/>
<path d="M0 172.697H184.539" stroke="#B1ADA8" stroke-opacity="0.6"/>
</svg>
