<svg width="35" height="35" viewBox="0 0 35 35" fill="none" xmlns="http://www.w3.org/2000/svg">
<path d="M25.9792 9.02084H25.9946M9.79168 2.08334H25.2083C29.4655 2.08334 32.9167 5.53448 32.9167 9.79168V25.2083C32.9167 29.4655 29.4655 32.9167 25.2083 32.9167H9.79168C5.53448 32.9167 2.08334 29.4655 2.08334 25.2083V9.79168C2.08334 5.53448 5.53448 2.08334 9.79168 2.08334ZM23.6667 16.5288C23.8569 17.8118 23.6378 19.1222 23.0404 20.2735C22.443 21.4248 21.4978 22.3584 20.3392 22.9416C19.1806 23.5247 17.8676 23.7277 16.587 23.5217C15.3064 23.3156 14.1234 22.711 13.2062 21.7938C12.289 20.8766 11.6844 19.6936 11.4784 18.413C11.2723 17.1324 11.4753 15.8194 12.0584 14.6608C12.6416 13.5022 13.5752 12.557 14.7265 11.9596C15.8778 11.3622 17.1882 11.1431 18.4713 11.3333C19.78 11.5274 20.9917 12.1373 21.9272 13.0728C22.8628 14.0084 23.4726 15.22 23.6667 16.5288Z" stroke="#FFE6E0D4" stroke-opacity="1" stroke-width="2" stroke-linecap="round" stroke-linejoin="round"/>
</svg>
