<svg width="29" height="35" viewBox="0 0 29 35" fill="none" xmlns="http://www.w3.org/2000/svg">
<path d="M27.625 14.5833C27.625 24.7917 14.5 33.5417 14.5 33.5417C14.5 33.5417 1.375 24.7917 1.375 14.5833C1.375 11.1024 2.75781 7.76398 5.21922 5.30257C7.68064 2.84115 11.019 1.45834 14.5 1.45834C17.981 1.45834 21.3194 2.84115 23.7808 5.30257C26.2422 7.76398 27.625 11.1024 27.625 14.5833Z" stroke="#DFD0B8" stroke-width="1.5" stroke-linecap="round" stroke-linejoin="round"/>
<path d="M14.5 18.9583C16.9162 18.9583 18.875 16.9996 18.875 14.5833C18.875 12.1671 16.9162 10.2083 14.5 10.2083C12.0838 10.2083 10.125 12.1671 10.125 14.5833C10.125 16.9996 12.0838 18.9583 14.5 18.9583Z" stroke="#DFD0B8" stroke-width="1.5" stroke-linecap="round" stroke-linejoin="round"/>
</svg>
