<svg width="34" height="33" viewBox="0 0 34 33" fill="none" xmlns="http://www.w3.org/2000/svg">
<g filter="url(#filter0_d_68_3)">
<path d="M31.1667 16C31.1667 23.824 24.824 30.1667 17 30.1667M31.1667 16C31.1667 8.17598 24.824 1.83334 17 1.83334M31.1667 16H2.83334M17 30.1667C9.17598 30.1667 2.83334 23.824 2.83334 16M17 30.1667C20.5435 26.2873 22.5572 21.253 22.6667 16C22.5572 10.7471 20.5435 5.71268 17 1.83334M17 30.1667C13.4565 26.2873 11.4428 21.253 11.3333 16C11.4428 10.7471 13.4565 5.71268 17 1.83334M2.83334 16C2.83334 8.17598 9.17598 1.83334 17 1.83334" stroke="#DFD0B8" stroke-width="2" stroke-linecap="round" stroke-linejoin="round" shape-rendering="crispEdges"/>
</g>
<defs>
<filter id="filter0_d_68_3" x="-2.16666" y="0.833344" width="38.3333" height="38.3333" filterUnits="userSpaceOnUse" color-interpolation-filters="sRGB">
<feFlood flood-opacity="0" result="BackgroundImageFix"/>
<feColorMatrix in="SourceAlpha" type="matrix" values="0 0 0 0 0 0 0 0 0 0 0 0 0 0 0 0 0 0 127 0" result="hardAlpha"/>
<feOffset dy="4"/>
<feGaussianBlur stdDeviation="2"/>
<feComposite in2="hardAlpha" operator="out"/>
<feColorMatrix type="matrix" values="0 0 0 0 0 0 0 0 0 0 0 0 0 0 0 0 0 0 0.25 0"/>
<feBlend mode="normal" in2="BackgroundImageFix" result="effect1_dropShadow_68_3"/>
<feBlend mode="normal" in="SourceGraphic" in2="effect1_dropShadow_68_3" result="shape"/>
</filter>
</defs>
</svg>
